<svg xmlns="http://www.w3.org/2000/svg" width="64" height="64" viewBox="0 0 64 64">
    <defs>
        <linearGradient id="d5ca9a5p1a" x1="13.835%" x2="87.246%" y1="11.008%" y2="100%">
            <stop offset="0%" stop-color="#F6A27C"/>
            <stop offset="100%" stop-color="#DB3489"/>
        </linearGradient>
    </defs>
    <g fill="none" fill-rule="evenodd">
        <g>
            <g>
                <g>
                    <g transform="translate(-776 -1242) translate(40 1202) translate(696) translate(40 40)">
                        <rect width="64" height="64" fill="url(#d5ca9a5p1a)" rx="5.333"/>
                        <g>
                            <path d="M0 0L32 0 32 32 0 32z" transform="translate(16 16)"/>
                            <path fill="#FFF" fill-rule="nonzero" d="M22.343 4l-9.955 9.955.01 5.662 5.651-.009L28 9.658v17.009c0 .736-.597 1.333-1.333 1.333H5.333C4.597 28 4 27.403 4 26.667V5.333C4 4.597 4.597 4 5.333 4h17.01zm4.97-1.2L29.2 4.688 16.944 16.944l-1.883.004-.002-1.89L27.313 2.8z" transform="translate(16 16)"/>
                        </g>
                    </g>
                </g>
            </g>
        </g>
    </g>
</svg>
