<svg xmlns="http://www.w3.org/2000/svg" width="48" height="48" viewBox="0 0 48 48">
    <defs>
        <linearGradient id="vje3k89gra" x1="13.835%" x2="86.699%" y1="11.008%" y2="77.82%">
            <stop offset="0%" stop-color="#86B2FF"/>
            <stop offset="100%" stop-color="#6852FD"/>
        </linearGradient>
    </defs>
    <g fill="none" fill-rule="evenodd">
        <g>
            <g>
                <g>
                    <g transform="translate(-736 -18529) translate(0 17370) translate(156 823) translate(580 336)">
                        <rect width="48" height="48" fill="url(#vje3k89gra)" rx="4"/>
                        <g>
                            <path d="M0 0L24 0 24 24 0 24z" transform="translate(12 12)"/>
                            <path fill="#FFF" fill-rule="nonzero" d="M12 11c2.761 0 5 2.239 5 5v6H7v-6c0-2.761 2.239-5 5-5zm-6.712 3.006c-.16.537-.253 1.09-.28 1.65L5 16v6H2v-4.5c0-1.786 1.344-3.286 3.119-3.48l.17-.014h-.001zm13.424 0C20.559 14.119 22 15.649 22 17.5V22h-3v-6c0-.693-.1-1.362-.288-1.994zM5.5 8C6.88 8 8 9.12 8 10.5S6.88 13 5.5 13 3 11.88 3 10.5 4.12 8 5.5 8zm13 0c1.38 0 2.5 1.12 2.5 2.5S19.88 13 18.5 13 16 11.88 16 10.5 17.12 8 18.5 8zM12 2c2.21 0 4 1.79 4 4s-1.79 4-4 4-4-1.79-4-4 1.79-4 4-4z" transform="translate(12 12)"/>
                        </g>
                    </g>
                </g>
            </g>
        </g>
    </g>
</svg>
