<svg xmlns="http://www.w3.org/2000/svg" width="64" height="64" viewBox="0 0 64 64">
    <defs>
        <linearGradient id="eiczul08na" x1="100%" x2="0%" y1="100%" y2="0%">
            <stop offset="0%" stop-color="#618CFA"/>
            <stop offset="100%" stop-color="#1C34F7"/>
        </linearGradient>
    </defs>
    <g fill="none" fill-rule="evenodd">
        <g>
            <g>
                <g transform="translate(-80 -1242) translate(40 1202) translate(40 40)">
                    <rect width="64" height="64" fill="url(#eiczul08na)" rx="5.333"/>
                    <g>
                        <path d="M0 0L32 0 32 32 0 32z" transform="translate(16 16)"/>
                        <path fill="#FFF" d="M28.01 4c.731 0 1.323.599 1.323 1.343v17.314c0 .742-.606 1.343-1.322 1.343H17.333v2.667h5.334v2.666H9.333v-2.666h5.334V24H3.989c-.353-.002-.692-.145-.94-.397s-.386-.592-.382-.946V5.343C2.667 4.6 3.273 4 3.989 4h24.022zM17.149 8.112c-.757-.15-1.54-.15-2.296.001-.103.641-.506 1.203-1.097 1.526-.59.324-1.305.376-1.94.14-.515.547-.906 1.19-1.148 1.888.533.405.843 1.018.843 1.666 0 .648-.31 1.26-.842 1.665.24.698.631 1.342 1.146 1.89.636-.236 1.35-.185 1.94.14.592.323.996.885 1.098 1.527.758.15 1.54.149 2.296-.002.103-.64.506-1.202 1.097-1.525.59-.325 1.305-.376 1.94-.14.515-.548.906-1.19 1.148-1.889-.514-.39-.843-.991-.843-1.665 0-.648.31-1.262.842-1.666-.24-.699-.631-1.342-1.146-1.89-.636.236-1.35.185-1.94-.14-.592-.323-.996-.885-1.098-1.526zM16 11.734c.93 0 1.684.716 1.684 1.6 0 .883-.754 1.6-1.684 1.6-.93 0-1.684-.717-1.684-1.6 0-.884.754-1.6 1.684-1.6z" transform="translate(16 16)"/>
                    </g>
                </g>
            </g>
        </g>
    </g>
</svg>
