<svg xmlns="http://www.w3.org/2000/svg" width="48" height="48" viewBox="0 0 48 48">
    <defs>
        <linearGradient id="k0qjqysmoa" x1="100%" x2="0%" y1="100%" y2="0%">
            <stop offset="0%" stop-color="#FFD16B"/>
            <stop offset="100%" stop-color="#F7901C"/>
        </linearGradient>
    </defs>
    <g fill="none" fill-rule="evenodd">
        <g>
            <g>
                <g>
                    <g transform="translate(-156 -18529) translate(0 17370) translate(156 823) translate(0 336)">
                        <rect width="48" height="48" fill="url(#k0qjqysmoa)" rx="4"/>
                        <g>
                            <path d="M0 0L24 0 24 24 0 24z" transform="translate(12 12)"/>
                            <path fill="#FFF" fill-rule="nonzero" d="M21 16.42v3.536c0 .525-.406.961-.93.998-.437.03-.794.046-1.07.046-8.837 0-16-7.163-16-16 0-.276.015-.633.046-1.07.037-.524.473-.93.998-.93H7.58c.257 0 .472.194.498.45.023.23.044.413.064.552.199 1.387.606 2.736 1.208 4.001.095.2.033.439-.147.567l-2.158 1.542c1.32 3.074 3.77 5.525 6.844 6.844l1.54-2.154c.13-.182.371-.244.573-.149 1.265.6 2.614 1.007 4 1.205.139.02.322.042.55.064.255.026.45.241.449.498H21z" transform="translate(12 12)"/>
                        </g>
                    </g>
                </g>
            </g>
        </g>
    </g>
</svg>
