<svg xmlns="http://www.w3.org/2000/svg" width="48" height="48" viewBox="0 0 48 48">
    <g fill="none" fill-rule="evenodd">
        <g>
            <g>
                <g>
                    <g>
                        <path d="M0 0H48V48H0z" transform="translate(-156 -3986) translate(0 3566) translate(156 348) translate(0 72)"/>
                        <path fill="#335BFB" d="M24 4c11.046 0 20 8.954 20 20s-8.954 20-20 20S4 35.046 4 24 12.954 4 24 4zm0 3.902C15.11 7.902 7.902 15.11 7.902 24c0 8.89 7.208 16.098 16.098 16.098 8.89 0 16.098-7.208 16.098-16.098 0-8.89-7.208-16.098-16.098-16.098z" transform="translate(-156 -3986) translate(0 3566) translate(156 348) translate(0 72)"/>
                        <text fill="#335BFB" font-family="Rubik-Bold, Rubik" font-size="22" font-weight="bold" transform="translate(-156 -3986) translate(0 3566) translate(156 348) translate(0 72)">
                            <tspan x="18.456" y="29">1</tspan>
                        </text>
                    </g>
                </g>
            </g>
        </g>
    </g>
</svg>
